# xmcd
#
# Track frame offsets:
#	150
#	15475
#	31080
#	49105
#	68000
#	85095
#	101475
#	119920
#	137410
#	154065
#	173545
#	192430
#	206540
#	233445
#	249535
#	277903
#
# Disc length: 3713 seconds
#
# Revision: 2
# Processed by: cddbd v1.5.2PL0 Copyright (c) Steve Scherf et al.
# Submitted via: audiograbber 1.83.01
#
DISCID=c70e7f10
DTITLE=Sound Choice - 9018 Country Hits Vol 197
DYEAR=2008
DGENRE=Karaoke
TTITLE0=Pickler, Kellie - Things That Never Cross A Man's Mind
TTITLE1=Shepherd, Ashton - Takin' Off This Pain
TTITLE2=Shelton, Blake - Home
TTITLE3=Paisley, Brad - I'm Still A Guy
TTITLE4=Price, Lee - Happy Endings
TTITLE5=Stait, George - I Saw God Today
TTITLE6=Lady Antebellum - Love Don't Live Here
TTITLE7=Bentley, Dierks - Trying To Stop Your Leaving
TTITLE8=Urban, Keith - Live To Love Another Day
TTITLE9=Gentry, Montgomery - Back When I Knew It All
TTITLE10=Vasser, Phil - Love Is A Beautiful Thing
TTITLE11=Swift, Taylor - Picture To Burn
TTITLE12=Brooks and Dunn - Believe
TTITLE13=Owen, Jake - Something About A woman
TTITLE14=Krauss, Alison and Robert Plant - Gone Gone Gone
TTITLE15=Data - Data Track
EXTD=
EXTT0=
EXTT1=
EXTT2=
EXTT3=
EXTT4=
EXTT5=
EXTT6=
EXTT7=
EXTT8=
EXTT9=
EXTT10=
EXTT11=
EXTT12=
EXTT13=
EXTT14=
EXTT15=
PLAYORDER=
